<svg version="1" xmlns="http://www.w3.org/2000/svg" width="933.333" height="933.333" viewBox="0 0 700.000000 700.000000"><path d="M318 27.5V33h-11v11h-11v11h-11v11h-11v32h-11v23h-11v76h-54v11h-10.8l-.7 11-.7 11h-9.5l-.6 8.2c-.4 4.6-.7 12-.7 16.5v8.3h-9.7l-.6 16.7c-.4 9.1-.7 53.4-.7 98.5V460h-9.9l-.3 5.3-.3 5.2-5.7.3-5.8.3v9.7l-10.4.7-10.4.7-.7 10.4-.7 10.4H110v110h43v11h-10v7.7c0 4.3-.3 11.5-.7 16l-.6 8.3H132v21.8l11 .7 11 .8v9.7h394v-9.8l10.5-.7 10.5-.7V657h-10v-23h-11v-21h42.7l.6-8.3c.4-4.5.7-25.3.7-46.2 0-20.9-.3-41.7-.7-46.3l-.6-8.2h-9.6l-.3-5.8-.3-5.7-5.2-.3-5.3-.3V482h-11v-10.8l-11-.7-11-.7V263h-11v-33h-11v-22h-11v-11h-54v-13.3c0-7.2-.3-24.3-.7-38l-.6-24.7h-9.5l-.7-11.5-.7-11.5h-9.5l-.7-7.7c-.3-4.2-.6-11.4-.6-16V66h-11V55h-10V44h-11V33h-11V22h-66v5.5zm54 33V66h10.8l.7 11 .7 11h9.6l.7 10.5.7 10.5h9.8v11h-10v-11h-10.9l-.3-5.3-.3-5.2-32.7-.3L318 98v11h-11V88h11V66h11V55h43v5.5zM307 115v5h-11v-10h11v5zm65.2 22.2l.3 5.3 5.1.3 5.2.3.7 10.4.7 10.5h9.6l.7 11 .7 11h9.6l.7 11 .7 11h9.5l.6 16.7c.4 9.1.7 70.8.7 137V482h10v4.9c0 2.8.5 5.3 1 5.6.6.4 5.5.3 10.9 0l9.9-.7.7-11.1.7-11 7.6.7c4.1.3 8.8.6 10.4.6 2.7 0 2.8.2 2.8 4.9v4.8l8.3.6c4.5.4 11.9.7 16.5.7h8.2v9.8l11 .7 11 .7v9.6l11 .7 11 .7v9.8h11v22h10v33h-10v11H372v-76h-9.9l-.3-5.8-.3-5.7-10.7-.3-10.8-.3V569h-11v11H142l.2-32.8.3-32.7 5.2-.3 5.2-.3.3-5.2.3-5.2 5.8-.3 5.7-.3V493h7.8c4.2 0 11.4-.3 16-.7l8.2-.6v-9.5l11.5-.7 11.5-.7V471h7.8c4.2 0 11.4-.3 16-.7l8.2-.6V493h8.3c4.5 0 11.9-.3 16.5-.7l8.2-.6V208h11v-22h11v-22h11v-21h11v-11h42.9l.3 5.2zM230 246.5V263h11v164h-11v11h-21v10h-11V274.1l5.3-.3 5.2-.3.3-10.8.3-10.7h9.7l.7-11 .7-11h9.8v16.5zm252-5.5v11h11v22h11v174h-22v-10h-11v-11h-11V263h11v-33h11v11zM252 629v16H185.7l.7-7.7c.3-4.2.6-11.4.6-16V613h65v16zm88-10.5v5.6l10.8-.3 10.7-.3.3-5.3.3-5.2H416v32H285v-32h55v5.5zM515 629v16h-65v-32h65v16z"/><path d="M329 257v16h42.7l.7-7.7c.3-4.2.6-11.4.6-16V241h-44v16z"/></svg>